<!-- Generator: Adobe Illustrator 19.2.0, SVG Export Plug-In  -->
<svg version="1.1"
	 xmlns="http://www.w3.org/2000/svg" xmlns:xlink="http://www.w3.org/1999/xlink" xmlns:a="http://ns.adobe.com/AdobeSVGViewerExtensions/3.0/"
	 x="0px" y="0px" width="42.6px" height="58.6px" viewBox="0 0 42.6 58.6" style="enable-background:new 0 0 42.6 58.6;"
	 xml:space="preserve">
<style type="text/css">
	.st0{fill:#231F20;}
	.st1{fill:#3399CC;}
	.st2{fill:#FFFFFF;}
	.st3{fill:none;stroke:#3399CC;stroke-miterlimit:10;}
</style>
<defs>
</defs>
<g>
	<g>
		<circle class="st0" cx="21.3" cy="54.9" r="3.7"/>
		<path class="st1" d="M42.6,21.3C42.6,9.5,33,0,21.3,0C9.5,0,0,9.5,0,21.3c0,5.1,1.8,9.8,4.8,13.5l0,0l0,0c0,0,0,0,0,0l16.4,20.1
			l16.3-20l-0.5,0.5C40.8,31.6,42.6,27,42.6,21.3z"/>
		<circle class="st2" cx="21.3" cy="21.3" r="15.9"/>
	</g>
	<g>
		<circle class="st3" cx="21.3" cy="21.9" r="9.9"/>
		<polygon class="st1" points="20,19.2 17.2,17.6 18.8,20.3 20.5,23 23.2,24.7 26,26.3 24.3,23.6 22.7,20.8 		"/>
		<path class="st1" d="M26.1,23l3.7-1l-3.7-1c-0.4-1.9-1.9-3.3-3.8-3.7L21.5,14l-0.9,3.3c-1.9,0.4-3.4,1.8-3.8,3.7L13.3,22l3.5,0.9
			c0.4,1.9,1.9,3.4,3.8,3.8l0.8,3.2l0.8-3.2C24.2,26.3,25.7,24.8,26.1,23z M21.5,25.9c-2.2,0-3.9-1.8-3.9-4c0-2.2,1.8-3.9,3.9-3.9
			c2.2,0,3.9,1.8,3.9,3.9C25.4,24.2,23.6,25.9,21.5,25.9z"/>
		<rect x="19.9" y="9.3" class="st1" width="2.8" height="2.8"/>
	</g>
</g>
</svg>
