<!-- Generator: Adobe Illustrator 19.2.0, SVG Export Plug-In  -->
<svg version="1.1"
	 xmlns="http://www.w3.org/2000/svg" xmlns:xlink="http://www.w3.org/1999/xlink" xmlns:a="http://ns.adobe.com/AdobeSVGViewerExtensions/3.0/"
	 x="0px" y="0px" width="43.6px" height="60px" viewBox="0 0 43.6 60" style="enable-background:new 0 0 43.6 60;"
	 xml:space="preserve">
<style type="text/css">
	.st0{fill:#231F20;}
	.st1{fill:#3399CC;}
	.st2{fill:#FFFFFF;}
	.st3{clip-path:url(#SVGID_2_);}
	.st4{clip-path:url(#SVGID_4_);}
	.st5{font-family:'MyriadPro-BoldCond';}
	.st6{font-size:16.6668px;}
	.st7{font-size:2.0834px;}
	.st8{clip-path:url(#SVGID_6_);fill:none;stroke:#3399CC;stroke-width:40;stroke-miterlimit:10;}
	.st9{clip-path:url(#SVGID_6_);fill:none;stroke:#3399CC;stroke-width:60;stroke-linecap:round;stroke-miterlimit:10;}
	.st10{clip-path:url(#SVGID_8_);}
	.st11{clip-path:url(#SVGID_10_);}
	.st12{clip-path:url(#SVGID_12_);fill:none;stroke:#3399CC;stroke-width:40;stroke-miterlimit:10;}
	.st13{clip-path:url(#SVGID_12_);fill:none;stroke:#3399CC;stroke-width:60;stroke-linecap:round;stroke-miterlimit:10;}
</style>
<defs>
</defs>
<g>
	<g>
		<g>
			<circle class="st0" cx="21.8" cy="56.2" r="3.8"/>
			<path class="st1" d="M43.6,21.8C43.6,9.8,33.8,0,21.8,0C9.8,0,0,9.8,0,21.8C0,27,1.9,31.9,4.9,35.6l0,0l0,0c0,0,0,0,0,0
				l16.8,20.6l16.7-20.5l-0.5,0.5C41.8,32.4,43.6,27.6,43.6,21.8z"/>
			<circle class="st2" cx="21.8" cy="21.9" r="16.3"/>
		</g>
	</g>
	<g>
		<g>
			<defs>
				<rect id="SVGID_1_" x="9.3" y="8.5" width="25" height="25"/>
			</defs>
			<clipPath id="SVGID_2_">
				<use xlink:href="#SVGID_1_"  style="overflow:visible;"/>
			</clipPath>
			<g class="st3">
				<defs>
					<rect id="SVGID_3_" x="9.3" y="8.5" width="25" height="25"/>
				</defs>
				<clipPath id="SVGID_4_">
					<use xlink:href="#SVGID_3_"  style="overflow:visible;"/>
				</clipPath>
				<g class="st4">
					<text transform="matrix(1 -1.579254e-03 1.579254e-03 1 17.4629 23.2835)" class="st1 st5 st6">A</text>
				</g>
			</g>
			<g class="st3">
				<text transform="matrix(1 -1.580053e-03 1.580053e-03 1 25.0955 23.2708)"><tspan x="0" y="0" class="st1 st5 st7">na</tspan><tspan x="1.8" y="0" class="st1 st5 st7">l</tspan><tspan x="2.3" y="0" class="st1 st5 st7">y</tspan><tspan x="3.1" y="0" class="st1 st5 st7">z</tspan><tspan x="3.8" y="0" class="st1 st5 st7">e</tspan></text>
			</g>
			<g class="st3">
				<defs>
					<rect id="SVGID_5_" x="9.3" y="8.5" width="25" height="25"/>
				</defs>
				<clipPath id="SVGID_6_">
					<use xlink:href="#SVGID_5_"  style="overflow:visible;"/>
				</clipPath>
				
					<ellipse transform="matrix(7.581633e-02 -0.9971 0.9971 7.581633e-02 0.7249 36.2969)" class="st8" cx="19.9" cy="17.8" rx="8.2" ry="8.2"/>
				<line class="st9" x1="26.4" y1="26.1" x2="30.2" y2="31.3"/>
			</g>
		</g>
	</g>
</g>
</svg>
