<?xml version="1.0" encoding="utf-8"?>
<!-- Generator: Adobe Illustrator 19.2.0, SVG Export Plug-In . SVG Version: 6.00 Build 0)  -->
<svg version="1.1" id="Layer_1" xmlns="http://www.w3.org/2000/svg" xmlns:xlink="http://www.w3.org/1999/xlink" x="0px" y="0px"
	 viewBox="0 0 77.9 109.4" style="enable-background:new 0 0 77.9 109.4;" xml:space="preserve">
<style type="text/css">
	.st0{fill:#231F20;}
	.st1{fill:#163B65;}
	.st2{clip-path:url(#SVGID_2_);}
	.st3{fill:none;}
</style>
<g>
	<path class="st0" d="M45.7,102.6c0,3.7-3,6.8-6.8,6.8c-3.7,0-6.8-3-6.8-6.8c0-3.7,3-6.8,6.8-6.8C42.7,95.9,45.7,98.9,45.7,102.6z"
		/>
	<path class="st1" d="M77.9,39c0-21.5-17.4-39-39-39S0,17.4,0,39c0,9.4,3.3,18,8.8,24.7l0,0v0.1c0,0,0,0,0.1,0.1l30,36.7L68.8,64
		L68,65C74.7,57.9,77.9,49.4,77.9,39z"/>
	<g>
		<g>
			<defs>
				<circle id="SVGID_1_" cx="39" cy="39.1" r="29.1"/>
			</defs>
			<clipPath id="SVGID_2_">
				<use xlink:href="#SVGID_1_"  style="overflow:visible;"/>
			</clipPath>
			<g class="st2">
				
					<image style="overflow:visible;enable-background:new    ;" width="60" height="60" xlink:href="../../../../../../../Dropbox/EdTech/GCM2000/Graphics/module_01/thrive.jpg"  transform="matrix(1.0143 0 0 1.0143 8.7523 8.5802)">
				</image>
			</g>
		</g>
	</g>
	<ellipse class="st3" cx="38" cy="39" rx="30" ry="30"/>
</g>
</svg>
