<!-- Generator: Adobe Illustrator 19.2.0, SVG Export Plug-In  -->
<svg version="1.1"
	 xmlns="http://www.w3.org/2000/svg" xmlns:xlink="http://www.w3.org/1999/xlink" xmlns:a="http://ns.adobe.com/AdobeSVGViewerExtensions/3.0/"
	 x="0px" y="0px" width="41.4px" height="51.4px" viewBox="0 0 41.4 51.4" style="enable-background:new 0 0 41.4 51.4;"
	 xml:space="preserve">
<style type="text/css">
	.st0{fill:#C09D66;}
	.st1{fill:#FFFFFF;}
	.st2{clip-path:url(#SVGID_2_);}
	.st3{clip-path:url(#SVGID_4_);fill:#C19D66;}
	.st4{clip-path:url(#SVGID_6_);}
	.st5{clip-path:url(#SVGID_8_);fill:#C19D66;}
</style>
<defs>
</defs>
<g>
	<g>
		<path class="st0" d="M36.4,51.4H20.7H5c-1.4,0-2.6-0.6-3.5-1.5C0.6,49,0,47.8,0,46.4V30.7V15c0-1.4,0.6-2.6,1.5-3.5
			C2.4,10.6,17.8,0.9,17.8,0.9c1.7-1.2,4.1-1.2,5.8,0c0,0,15.4,9.7,16.3,10.6c0.9,0.9,1.5,2.2,1.5,3.5v15.7v15.7
			c0,1.4-0.6,2.6-1.5,3.5C39,50.9,37.7,51.4,36.4,51.4z"/>
		<circle class="st1" cx="20.7" cy="30.8" r="16.3"/>
	</g>
	<g>
		<g>
			<defs>
				<rect id="SVGID_1_" x="8.2" y="18.5" width="25" height="25"/>
			</defs>
			<clipPath id="SVGID_2_">
				<use xlink:href="#SVGID_1_"  style="overflow:visible;"/>
			</clipPath>
			<g class="st2">
				<defs>
					<rect id="SVGID_3_" x="8.2" y="18.5" width="25" height="25"/>
				</defs>
				<clipPath id="SVGID_4_">
					<use xlink:href="#SVGID_3_"  style="overflow:visible;"/>
				</clipPath>
				<path class="st3" d="M16,30.1c0-1.3,0-2.5,0-3.8c0-0.2,0.1-0.3,0.3-0.3c0.8-0.1,1.6-0.1,2.4-0.2c0.7-0.1,1.4-0.1,2.1-0.2
					c0.4,0,0.8,0,1.1,0.1c0.5,0,1.1,0.1,1.6,0.1c0.6,0.1,1.2,0.1,1.9,0.2c0.1,0,0.3,0,0.4,0c0.2,0,0.2,0.1,0.3,0.3
					c0,0.1,0,0.1,0,0.2c0,2.5,0,4.9,0,7.4c0,0.2-0.1,0.3-0.3,0.3c-0.4,0-0.8,0-1.2,0c-0.1,0-0.1,0-0.1,0.1c-0.1,0.8-0.1,1.6-0.2,2.4
					c-0.1,0.8-0.1,1.6-0.2,2.4c-0.1,0.7-0.1,1.4-0.2,2.1c0,0.3,0,0.6-0.1,0.9c0,0.2-0.1,0.2-0.3,0.2c-1.5,0-3.1,0-4.6,0
					c-0.1,0-0.2,0-0.2,0c-0.2,0-0.2-0.1-0.2-0.2c0-0.3-0.1-0.7-0.1-1c-0.1-0.7-0.1-1.4-0.2-2.1c0-0.6-0.1-1.1-0.1-1.7
					c-0.1-0.7-0.1-1.4-0.2-2.1c0-0.3,0-0.5-0.1-0.8c0-0.1,0-0.1-0.1-0.1c-0.4,0-0.9,0-1.3,0c-0.2,0-0.3-0.1-0.3-0.3
					C16,32.6,16,31.4,16,30.1"/>
				<path class="st3" d="M23.7,22.4c0,1.5-1.2,2.7-2.7,2.7c-1.5,0-2.7-1.2-2.7-2.7c0-1.5,1.2-2.7,2.7-2.7
					C22.5,19.7,23.7,20.9,23.7,22.4"/>
				<path class="st3" d="M15.1,30.4c0,1.2,0,2.3,0,3.5c0,0.2,0.1,0.6,0.4,0.7c0.1,0,0.1,0.1,0.1,0.2c-0.1,1-0.1,2-0.2,3.1
					c-0.1,0.8-0.1,1.6-0.2,2.4c0,0.1-0.3,0.1-0.4,0.1c-0.6,0-1.1,0-1.7,0c-0.7,0-1.5,0-2.2,0c-0.2,0-0.2,0-0.2-0.2
					c-0.1-0.7-0.1-1.4-0.2-2.1c-0.1-1-0.2-2-0.2-2.9c0-0.4-0.1-0.8-0.1-1.2c0-0.1,0-0.1-0.1-0.1c-0.3,0-0.7,0-1,0
					c-0.2,0-0.2-0.1-0.2-0.2c0-2.1,0-4.2,0-6.3c0-0.2,0.1-0.2,0.2-0.3c1-0.1,2-0.2,3-0.3c0.2,0,0.4,0,0.6-0.1c0.3,0,0.6,0,0.9,0.1
					c0.5,0,1,0.1,1.5,0.1c0.1,0,0.1,0,0.1,0.1C15.1,28,15.1,29.2,15.1,30.4"/>
				<path class="st3" d="M10.6,23.8c0-1.3,1-2.3,2.3-2.2c1.2,0,2.2,1,2.2,2.3c0,1.2-1,2.2-2.3,2.2C11.6,26,10.6,25,10.6,23.8"/>
				<path class="st3" d="M32.7,30.3c0,1,0,2.1,0,3.1c0,0.2,0,0.3-0.3,0.3c-0.3,0-0.6,0-0.9,0c-0.1,0-0.1,0-0.1,0.1
					c-0.1,1.4-0.2,2.9-0.4,4.3c-0.1,0.7-0.1,1.4-0.2,2.1c0,0.1-0.1,0.2-0.2,0.2c-1.3,0-2.6,0-3.9,0c-0.1,0-0.2-0.1-0.2-0.2
					c-0.1-0.7-0.1-1.5-0.2-2.2c-0.1-0.9-0.1-1.7-0.2-2.6c0-0.1,0-0.2,0-0.3c0-0.1,0-0.1,0.1-0.1c0.1,0,0.3-0.1,0.4-0.1
					c0.3-0.2,0.4-0.5,0.4-0.8c0-2.4,0-4.8,0-7.1c0-0.1,0-0.2,0.1-0.2c0.5,0,0.9-0.1,1.4-0.1c0.3,0,0.5,0,0.8,0.1
					c0.7,0.1,1.3,0.1,2,0.2c0.3,0,0.7,0.1,1,0.1c0.1,0,0.2,0.1,0.2,0.2c0,0,0,0.1,0,0.1C32.7,28.2,32.7,29.2,32.7,30.3"/>
				<path class="st3" d="M26.3,23.8c0-1.2,1-2.2,2.2-2.2c1.2,0,2.2,1,2.2,2.2c0,1.2-1,2.2-2.2,2.2C27.3,26.1,26.3,25.1,26.3,23.8"/>
			</g>
		</g>
	</g>
</g>
</svg>
