<!-- Generator: Adobe Illustrator 19.2.0, SVG Export Plug-In  -->
<svg version="1.1"
	 xmlns="http://www.w3.org/2000/svg" xmlns:xlink="http://www.w3.org/1999/xlink" xmlns:a="http://ns.adobe.com/AdobeSVGViewerExtensions/3.0/"
	 x="0px" y="0px" width="43.6px" height="60px" viewBox="0 0 43.6 60" style="enable-background:new 0 0 43.6 60;"
	 xml:space="preserve">
<style type="text/css">
	.st0{fill:#231F20;}
	.st1{fill:#3399CC;}
	.st2{fill:#FFFFFF;}
	.st3{clip-path:url(#SVGID_2_);}
	.st4{clip-path:url(#SVGID_4_);fill:#3399CC;}
	.st5{clip-path:url(#SVGID_6_);}
	.st6{clip-path:url(#SVGID_8_);fill:#3399CC;}
</style>
<defs>
</defs>
<g>
	<g>
		<g>
			<circle class="st0" cx="21.8" cy="56.2" r="3.8"/>
			<path class="st1" d="M43.6,21.8C43.6,9.8,33.8,0,21.8,0C9.8,0,0,9.8,0,21.8C0,27,1.9,31.9,4.9,35.6l0,0l0,0c0,0,0,0,0,0
				l16.8,20.6l16.7-20.5l-0.5,0.5C41.8,32.4,43.6,27.6,43.6,21.8z"/>
			<circle class="st2" cx="21.8" cy="21.9" r="16.3"/>
		</g>
	</g>
	<g>
		<g>
			<defs>
				<rect id="SVGID_1_" x="6.3" y="6.4" width="30.8" height="30.8"/>
			</defs>
			<clipPath id="SVGID_2_">
				<use xlink:href="#SVGID_1_"  style="overflow:visible;"/>
			</clipPath>
			<g class="st3">
				<defs>
					<rect id="SVGID_3_" x="6.3" y="6.4" width="30.8" height="30.8"/>
				</defs>
				<clipPath id="SVGID_4_">
					<use xlink:href="#SVGID_3_"  style="overflow:visible;"/>
				</clipPath>
				<path class="st4" d="M17.8,36.5c0.2-0.5,0.2-1.1,0.5-1.5c1.8-2.3,3.8-4.5,5.4-6.9c0.8-1.2,1-2.8,1-4.3c0.1-1.9-1.4-3.7-3.1-4.1
					c-1.8-0.5-3.7,0.3-4.8,2.1c-0.6,1.1-1.1,2.3-1.8,3.3c-0.7,0.9-1.7,1.7-2.6,2.5c-0.2,0.2-0.7,0-1,0c0.1-0.3,0-0.9,0.2-1
					c2.1-1.3,3-3.4,4.1-5.5c1.3-2.5,4.1-3.5,6.5-2.6c2.5,0.9,4.1,3.6,3.8,6.5c-0.3,2.9-1.7,5.3-3.5,7.5c-1.2,1.4-2.6,2.7-3.9,4.1
					H17.8z"/>
				<path class="st4" d="M22.4,7.5c1.3,0.4,2.7,0.7,4,1.1c2.1,0.8,3.8,2.2,5.1,4.1c0.2,0.3,0.1,0.8,0.1,1.3
					c-0.4-0.2-0.9-0.2-1.1-0.5c-3-3.8-6.9-5-11.6-4.3c-0.2,0-0.5,0.1-0.7,0.1c-0.4-0.1-0.7-0.4-1-0.6c0.3-0.3,0.5-0.7,0.9-0.8
					c0.6-0.2,1.3-0.3,2-0.4H22.4z"/>
				<path class="st4" d="M28.5,24.9c-0.1,3.7-2.4,7.1-5.1,10.3c-0.1,0.2-0.6,0.1-0.9,0.1c0-0.3-0.2-0.7-0.1-0.9
					c0.2-0.5,0.6-0.8,0.9-1.3c1.9-2.5,3.6-5.2,3.8-8.4c0.2-3.3-1.5-6.2-4.3-7.4c-2.5-1-5.7-0.2-7.5,2c-0.5,0.7-0.9,1.5-1.4,2.2
					c-0.5,0.7-1,1.3-1.6,1.8c-0.2,0.2-0.7,0-1,0c0.1-0.3,0.1-0.7,0.2-1c0.4-0.6,1-1.1,1.4-1.8c2-3.8,5.6-5.7,9.2-4.8
					C25.9,16.6,28.5,20.1,28.5,24.9"/>
				<path class="st4" d="M31.3,24.5c-0.7,2.2-1.3,4.4-2.1,6.5c-0.1,0.4-0.7,0.6-1.1,0.9c0-0.5-0.2-1-0.1-1.4c1.3-2.7,2-5.5,1.3-8.5
					c-0.9-3.8-3-6.5-6.9-7.4c-3.8-0.9-6.9,0.5-9.2,3.7C13,18.6,12.4,18.8,12,19c0.1-0.5,0-1.1,0.3-1.5c2.4-3.5,5.8-5.1,10-4.4
					c4.4,0.8,7,3.8,8.2,8c0.3,1.1,0.3,2.2,0.5,3.3C31.1,24.4,31.2,24.5,31.3,24.5"/>
				<path class="st4" d="M23.8,24.3c-0.4,1.1-0.6,2.2-1.1,3.2c-1.3,2.7-3.3,5-5.7,6.9c-0.4,0.3-1.2,0.4-1.7,0.5
					c0.3-0.5,0.5-1.1,0.9-1.5c1.7-2.1,3.6-4.1,5.3-6.3c0.5-0.6,0.6-1.4,0.8-2.1c0.3-1.1,0.1-2.2-1.1-2.6c-1.2-0.4-1.9,0.3-2.5,1.3
					c-1,1.8-2.1,3.5-3.3,5.2c-0.5,0.6-1.2,1.1-1.8,1.6c-0.2,0.2-0.7,0-1,0c0.1-0.3,0-0.8,0.2-1c2.4-1.7,3.8-4.2,5-6.8
					c0.7-1.6,2.2-2.2,3.7-1.8C22.7,21.3,23.6,22.6,23.8,24.3"/>
				<path class="st4" d="M20.8,10.4c5.7,0,10.7,4,11.9,9.7c0.1,0.4-0.2,0.9-0.4,1.3c-0.3-0.3-0.7-0.6-0.9-1c-0.6-1.3-1-2.7-1.8-3.9
					c-3-4.6-9-6.1-13.9-3.6c-0.2,0.1-0.4,0.3-0.6,0.3c-0.4,0.1-0.8,0-1.1,0c0.2-0.4,0.2-1,0.5-1.1C16.5,10.9,18.6,10.3,20.8,10.4"/>
				<path class="st4" d="M14,33.4c-0.2-0.1-0.5-0.3-0.5-0.4c0.1-0.3,0.2-0.7,0.4-1c1.1-1.2,2.4-2.2,3.4-3.5c1-1.2,1.6-2.7,2.5-4.1
					c0.2-0.3,0.5-0.4,0.8-0.6c0.1,0.3,0.5,0.7,0.4,1c-1.4,3.4-3.4,6.2-6.4,8.4C14.4,33.3,14.2,33.3,14,33.4"/>
			</g>
		</g>
	</g>
</g>
</svg>
