<!-- Generator: Adobe Illustrator 19.2.0, SVG Export Plug-In  -->
<svg version="1.1"
	 xmlns="http://www.w3.org/2000/svg" xmlns:xlink="http://www.w3.org/1999/xlink" xmlns:a="http://ns.adobe.com/AdobeSVGViewerExtensions/3.0/"
	 x="0px" y="0px" width="734.9px" height="187.4px" viewBox="0 0 734.9 187.4" style="enable-background:new 0 0 734.9 187.4;"
	 xml:space="preserve">
<style type="text/css">
	.st0{fill:none;stroke:#9D1D20;stroke-miterlimit:10;}
	.st1{fill:none;stroke:#363837;stroke-miterlimit:10;}
	.st2{fill:none;stroke:#363837;stroke-miterlimit:10;stroke-dasharray:2.0236,2.0236;}
	.st3{fill:none;stroke:#363837;stroke-miterlimit:10;stroke-dasharray:2.016,2.016;}
	.st4{fill:none;stroke:#363837;stroke-miterlimit:10;stroke-dasharray:2.0007,2.0007;}
</style>
<defs>
</defs>
<path class="st0" d="M265.2,60c-22.7-5.2-47.9-27-47.9-27c-27.7-25-44-8.1-44-8.1c-16.3,21.1,16.5,36.8,16.5,36.8
	c19.8,9.2,11.7,19.9,11.7,19.9C175.8,118.6,94.1,60.4,94.1,60.4C57.2,38,3.9,34.8,3.9,34.8"/>
<g>
	<g>
		<path class="st1" d="M265.2,58.6c-0.3-0.1-0.6-0.2-1-0.2"/>
		<path class="st2" d="M262.3,57.8c-21-6.5-43.2-27.2-43.2-27.2c-32.7-23.8-48.6-5.3-48.6-5.3c-11,19.6,10.7,31.3,17.4,34.3"/>
		<path class="st1" d="M188.9,60c0.6,0.3,0.9,0.4,0.9,0.4c0.3,0.2,0.6,0.3,0.9,0.5"/>
		<path class="st3" d="M192.4,61.9c19.5,11.9,9.9,19.9,9.9,19.9C170.1,113.6,103.3,68,103.3,68C61.6,38.5,12.4,35.3,2,34.9"/>
		<path class="st1" d="M1,34.9c-0.7,0-1,0-1,0"/>
	</g>
</g>
<g>
	<g>
		<line class="st1" x1="658.3" y1="0.4" x2="659.2" y2="0.9"/>
		<path class="st4" d="M661,1.8l37.7,19.4c0,0,31.1,14.6,35.1,26.6c6.4,19.2-39,21.4-68.7,21.2c-49.5-3.4-22.2,8.6-22.2,8.6
			c40.9,13,23.2,19.7-9.3,19.5c-68.8,1.1-15.2,13.6-15.2,13.6c35.8,6.2,53.6,19.3-9.1,16.4c-0.1,0-19.1-4.9-32.2,3.8
			c-20.3,13.3-40.4,10.9-40.4,10.9c-28.6,1-72.6-18.1-72.6-18.1c-38.3-18.8-49.3-4.1-49.3-4.1c-16.5,21.1,19.9,33.8,19.9,33.8
			c23,12.8,14.5,21.5,14.5,21.5c-32.1,31.8-101-15.2-101-15.2C312.1,138,299.5,67.1,280.4,64"/>
		<path class="st1" d="M279.4,63.9c-0.3,0-0.7,0-1,0"/>
	</g>
</g>
<path class="st0" d="M658.4,2.8l39.9,20.7c0,0,30.8,14.6,34.7,26.6c6.4,19.2-38.5,21.4-67.9,21.2c-49-3.4-22,8.6-22,8.6
	c40.5,13,23,19.7-9.2,19.5c-68,1.1-15.1,13.6-15.1,13.6c35.4,6.2,53.1,19.3-9,16.4c-0.1,0-18.9-4.9-31.9,3.8
	c-20,13.3-39.9,10.9-39.9,10.9c-28.2,1-71.8-18.1-71.8-18.1c-37.9-18.8-49.4-5.9-49.4-5.9c-16.3,21.1,20.4,35.6,20.4,35.6
	c22.6,8.7,13.3,18.8,13.3,18.8c-25.8,37.1-107.6-21.2-107.6-21.2c-37-22.4-47.5-89.8-64.7-88"/>
</svg>
